<svg width="151" height="44" viewBox="0 0 151 44" fill="none" xmlns="http://www.w3.org/2000/svg">
<path fill-rule="evenodd" clip-rule="evenodd" d="M16.9152 11.2077C13.5271 11.1477 10.2036 12.1387 7.40158 14.0442C4.59952 15.9498 2.45644 18.6764 1.26691 21.8494C0.0773725 25.0223 -0.100222 28.4859 0.758535 31.7638C1.61729 35.0418 3.47024 37.9734 6.0627 40.1555C8.65515 42.3377 11.8598 43.6634 15.2363 43.9503C18.6127 44.2372 21.9952 43.4714 24.9187 41.758C27.8422 40.0446 30.1632 37.4677 31.5628 34.3817C32.9624 31.2956 33.3718 27.8518 32.7348 24.5236C32.0305 20.8238 30.0728 17.4796 27.1914 15.0542C24.31 12.6289 20.6809 11.2704 16.9152 11.2077ZM18.5639 36.1507C16.7795 36.5509 14.9146 36.3819 13.2312 35.6674C11.5479 34.953 10.1307 33.729 9.17885 32.1676C8.22703 30.6061 7.78841 28.7856 7.92465 26.962C8.06089 25.1384 8.76514 23.4033 9.93841 22.0006C11.1117 20.5979 12.695 19.5981 14.4658 19.1417C16.2367 18.6853 18.106 18.7953 19.8111 19.4562C21.5162 20.1171 22.9714 21.2956 23.9721 22.8262C24.9728 24.3568 25.4687 26.1626 25.3902 27.9896C25.3081 29.9112 24.5949 31.7522 23.3608 33.2276C22.1268 34.7029 20.4408 35.7303 18.5639 36.1507ZM40.2544 9.8171C39.6878 9.86803 39.1397 10.0446 38.65 10.3341C38.1602 10.6235 37.7412 11.0185 37.4233 11.4903C37.1054 11.9621 36.8967 12.4988 36.8124 13.0614C36.728 13.624 36.7702 14.1983 36.9357 14.7425C37.4514 16.5076 39.2367 17.5882 41.0646 17.4283L51.672 16.5002L37.0757 39.7899C36.9677 39.9619 36.9098 40.1605 36.9083 40.3635C36.9069 40.5666 36.9621 40.766 37.0676 40.9394C37.1732 41.1129 37.325 41.2535 37.506 41.3455C37.687 41.4375 37.8901 41.4773 38.0924 41.4604L63.986 39.195C65.8127 39.0352 67.3844 37.6612 67.5858 35.8331C67.6544 35.2685 67.5962 34.6956 67.4156 34.1563C67.2349 33.6169 66.9364 33.1246 66.5415 32.7152C66.1467 32.3057 65.6656 31.9894 65.1332 31.7892C64.6008 31.5891 64.0305 31.5101 63.4637 31.558L50.5394 32.6888L65.1245 9.41718C65.2335 9.24355 65.292 9.04298 65.2934 8.83796C65.2948 8.63295 65.2391 8.43159 65.1324 8.2565C65.0258 8.08141 64.8724 7.9395 64.6896 7.84669C64.5068 7.75389 64.3017 7.71386 64.0974 7.7311L40.2544 9.8171ZM143.731 0.852637C142.892 1.13149 142.173 1.68846 141.693 2.43147C141.213 3.17449 141.001 4.05904 141.092 4.93888L142.203 17.6321L120.203 3.06409C120.03 2.95017 119.829 2.88726 119.623 2.88259C119.416 2.87792 119.212 2.93169 119.035 3.03771C118.857 3.14373 118.713 3.29769 118.619 3.48189C118.526 3.66608 118.486 3.87302 118.504 4.07891L120.797 30.2876C120.86 31.1699 121.223 32.0042 121.824 32.6526C122.426 33.301 123.231 33.7246 124.106 33.8534C124.673 33.9272 125.25 33.8727 125.794 33.6938C126.337 33.515 126.834 33.2164 127.246 32.8202C127.659 32.4239 127.978 31.94 128.178 31.4042C128.379 30.8684 128.457 30.2944 128.406 29.7245L127.286 16.9214L149.286 31.4897C149.459 31.6035 149.66 31.6664 149.866 31.6711C150.073 31.6757 150.277 31.622 150.454 31.516C150.631 31.41 150.775 31.2561 150.869 31.072C150.963 30.8879 151.003 30.681 150.984 30.4752L148.683 4.17091C148.634 3.60101 148.457 3.04942 148.166 2.55682C147.876 2.06422 147.478 1.64317 147.003 1.32472C146.528 1.00627 145.987 0.798532 145.421 0.716827C144.855 0.635121 144.277 0.681533 143.731 0.852637ZM90.7741 12.3439C99.4737 11.5828 106.376 15.6115 106.736 19.7239C107.096 23.8363 100.998 29.0024 92.2981 29.7635C83.5985 30.5246 76.696 26.4959 76.3362 22.3835C75.9765 18.2712 82.0745 13.105 90.7741 12.3439ZM90.1071 4.72055C77.5148 5.82223 67.9468 14.028 68.736 23.0485C69.5252 32.069 80.3728 38.4886 92.9651 37.3869C105.557 36.2852 115.125 28.0795 114.336 19.059C113.547 10.0385 102.699 3.61889 90.1071 4.72055Z" fill="#F7F3ED"/>
</svg>
