<svg width="360" height="91" viewBox="0 0 360 91" fill="none" xmlns="http://www.w3.org/2000/svg">
<path d="M37.2394 0.978851C36.9918 1.77145 36.0124 5.61958 35.247 8.7785C34.549 11.7077 33.4346 16.8768 32.7142 20.5986C32.3427 22.5514 31.9037 24.7798 31.7461 25.538C31.3634 27.4218 31.217 28.1455 30.688 30.8794C30.429 32.1774 30.0238 34.1647 29.7874 35.3019C29.3259 37.4614 28.9206 39.4372 27.7049 45.4104C26.6017 50.9012 26.3316 52.1188 25.4423 55.921C25.2847 56.5872 25.0933 57.4373 25.0033 57.8163C24.0915 61.8368 24.0464 61.9976 23.8438 61.9172C23.5399 61.7908 20.3655 59.6198 19.2623 58.7812C18.7107 58.3677 16.3468 56.6791 14.0279 55.0365C11.709 53.3938 9.17621 51.5904 8.39949 51.0275C7.62277 50.4647 6.31698 49.5342 5.49524 48.9714C4.67349 48.397 3.10879 47.3058 2.02814 46.5246C0.936232 45.7435 0.0244314 45.1232 0.00191778 45.1577C-0.0318526 45.1807 0.384649 46.1686 0.913718 47.3517C1.44279 48.5349 1.87055 49.5113 1.87055 49.5342C1.87055 49.6032 2.59098 51.1769 4.68475 55.6912C5.24759 56.9203 6.41829 59.5509 7.28507 61.5266C10.527 68.9702 12.8684 73.2548 14.6358 75.0353C16.1442 76.5401 18.3167 77.1833 19.9827 76.5975C20.827 76.3103 21.7501 75.713 22.2341 75.1501C23.4273 73.7717 25.0821 70.475 25.386 68.9242L25.4535 68.5337L27.1421 69.6709C28.0764 70.2912 29.3484 71.1297 29.99 71.5432C32.9393 73.4501 33.8511 74.0819 33.7948 74.1738C33.7611 74.2312 33.232 74.5873 32.6354 74.9664C29.3596 77.011 26.5004 78.8834 25.87 79.3773C24.4967 80.4916 23.8663 81.8241 24.1478 82.9728C24.4292 84.11 25.7012 86.1202 26.7256 87.0736C28.0539 88.2797 30.6654 89.371 33.2207 89.7845C35.9786 90.2325 37.397 90.3014 39.5245 90.1062C42.7215 89.8075 44.1398 89.4399 46.5038 88.3257C48.1247 87.5561 49.6557 85.9019 50.6012 83.9032C51.4005 82.2376 50.9502 80.7788 49.2054 79.3659C48.7551 78.9983 48.0685 78.5043 47.6745 78.2631C47.2805 78.0219 45.9184 77.1489 44.6464 76.3333C43.3744 75.5177 42.0911 74.6907 41.7984 74.4954L41.2468 74.1508L41.5733 73.8866C41.7421 73.7373 42.1474 73.4501 42.4513 73.2663C42.7665 73.071 43.3068 72.7149 43.6558 72.4852C44.0047 72.2554 44.6914 71.8074 45.1755 71.4973C45.6595 71.1871 46.6839 70.5094 47.4606 69.9925C48.2373 69.4756 49.0478 68.9472 49.2729 68.8093L49.6894 68.5566L49.757 68.9587C49.802 69.1769 49.9821 69.7398 50.1622 70.1993C50.3536 70.6473 50.4999 71.0723 50.4999 71.1182C50.4999 71.3709 51.6031 73.4271 52.1659 74.2312C52.9426 75.3225 53.5843 75.9198 54.4848 76.3678C56.3985 77.3327 58.9313 76.6779 60.6986 74.7711C61.2614 74.1738 62.2295 72.7953 62.9049 71.6351C63.9631 69.8087 66.4283 64.7774 67.7116 61.7793C68.3532 60.2975 69.6252 57.4487 70.537 55.4615C71.4601 53.4743 72.5745 51.016 73.0135 50.0052C73.4525 48.9943 74.1054 47.5355 74.4431 46.7544C74.7921 45.9848 75.0397 45.3185 74.9947 45.2726C74.9609 45.2381 74.7358 45.3415 74.5107 45.5138C74.2743 45.6861 73.4075 46.2949 72.5858 46.8807C71.7528 47.4666 70.1656 48.5808 69.0399 49.3734C67.9142 50.166 66.282 51.3262 65.4152 51.958C64.5484 52.5783 62.3083 54.1635 60.4284 55.4845C58.5598 56.8055 56.5561 58.2299 55.982 58.6664C54.6537 59.6657 51.513 61.8368 51.2654 61.9287C51.1303 61.9746 51.0515 61.9172 51.0065 61.7449C50.7025 60.5962 50.3761 59.2177 50.2748 58.6204C50.2185 58.3677 50.1059 57.8278 49.9934 57.4143C49.8921 57.0008 49.7119 56.2311 49.5881 55.6912C49.4643 55.1514 49.2729 54.3013 49.1491 53.7959C49.0365 53.2905 48.8001 52.2566 48.6425 51.4985C48.4737 50.7404 48.2711 49.8099 48.1923 49.4308C48.1022 49.0518 47.7758 47.4436 47.4718 45.8699C46.9203 43.1015 46.4362 40.7237 46.0535 38.9203C45.9522 38.4493 45.7045 37.2087 45.4906 36.1749C45.2768 35.1411 45.0516 34.1072 44.9841 33.8775C44.9278 33.6478 44.8265 33.1538 44.7702 32.7748C44.7027 32.3957 44.5226 31.4423 44.3537 30.6497C44.1961 29.8571 44.016 28.9266 43.9597 28.582C43.9034 28.2374 43.8134 27.7205 43.7458 27.4333C43.6896 27.1461 43.577 26.6292 43.5094 26.2846C43.4419 25.94 43.3406 25.4231 43.2843 25.1359C43.2168 24.8488 43.1267 24.3548 43.0704 24.0447C43.0029 23.723 42.9128 23.2406 42.8453 22.9534C42.789 22.6662 42.6764 22.0689 42.5864 21.6324C42.1811 19.5992 41.5733 16.5896 41.3707 15.6018C40.8866 13.3158 39.502 7.23924 39.1868 6.06757C38.7816 4.53981 38.5452 3.57491 38.5002 3.31071C38.4664 3.14989 38.3763 2.75933 38.2863 2.44918C38.1962 2.12755 38.0161 1.49577 37.881 1.03629C37.746 0.588295 37.6109 0.209229 37.5659 0.209229C37.5208 0.209229 37.3745 0.553833 37.2394 0.978851ZM38.4326 35.3593C38.6915 36.083 39.1756 37.5304 39.5245 38.5757C39.8735 39.621 40.3688 41.0339 40.6165 41.7231C41.4269 43.9745 43.1717 49.1092 44.6914 53.7959C45.5244 56.323 46.6388 59.6313 47.1792 61.1475C47.7082 62.6638 48.1585 63.9733 48.1698 64.0652C48.181 64.1571 47.5394 64.6855 46.7289 65.2599C45.2768 66.2822 44.5676 66.7876 41.7759 68.7289C40.9767 69.2918 39.7384 70.1878 39.0292 70.7047C38.3313 71.2331 37.6784 71.6581 37.5884 71.6581C37.4983 71.6581 36.6541 71.1067 35.7197 70.429C34.7742 69.7513 33.3783 68.7634 32.6016 68.2235C31.8249 67.6836 30.2377 66.5694 29.067 65.7423C26.6468 64.0308 26.8156 64.3409 27.4235 62.6409C28.3128 60.1252 29.1795 57.5751 30.8005 52.6472C32.489 47.5355 33.3671 44.928 34.5715 41.5048C35.1682 39.8163 36.2376 36.7033 36.8342 34.8998C37.0593 34.2336 37.3182 33.6018 37.4195 33.4869C37.5884 33.2917 37.6109 33.3032 37.791 33.6593C37.8923 33.866 38.185 34.6356 38.4326 35.3593ZM64.6835 58.7238C64.6835 58.7468 64.4809 59.3556 64.222 60.0793C63.9631 60.7915 63.4678 62.2503 63.1075 63.3301C61.2614 68.8438 60.935 69.6249 59.8205 71.325C58.571 73.2318 57.1527 74.5299 56.3084 74.5299C55.4191 74.5299 54.3385 73.542 53.877 72.2784C53.5955 71.4858 52.4136 67.1782 52.4136 66.914C52.4136 66.7876 52.74 66.5005 53.2353 66.1788C53.6743 65.8917 55.1602 64.8923 56.5223 63.9733C57.8844 63.0544 59.2802 62.1239 59.6179 61.9057C59.9556 61.6874 60.7211 61.1935 61.3064 60.8029C61.8918 60.4124 62.7023 59.8955 63.1075 59.6542C63.5128 59.413 63.9856 59.0914 64.1544 58.942C64.4471 58.7008 64.6835 58.6089 64.6835 58.7238ZM12.0467 59.6772C14.8609 61.4807 15.9528 62.2043 18.6432 64.0193C20.1628 65.0416 21.6938 66.0525 22.0427 66.2707C22.5268 66.5579 22.6956 66.7302 22.6956 66.9255C22.6956 67.2241 21.6713 71.0263 21.3336 72.0027C21.0409 72.8068 20.6581 73.4731 20.2529 73.8636C19.8927 74.2197 19.2285 74.5299 18.8345 74.5299C18.4743 74.5299 17.5513 74.0244 17.0785 73.5764C16.0429 72.5656 14.2981 69.9121 13.7915 68.5566C13.465 67.7181 12.1142 63.7321 12.0354 63.4449C12.0129 63.3186 11.9341 63.1118 11.8891 62.9855C11.7315 62.6409 10.6396 59.3441 10.5721 59.0454C10.5383 58.9076 10.5495 58.7927 10.5946 58.7927C10.6396 58.7927 11.2925 59.1833 12.0467 59.6772ZM39.9861 77.93C41.2806 78.7341 42.6202 79.5611 42.9579 79.7909C44.0047 80.4916 45.6482 81.7666 45.8283 82.0308C46.1098 82.4444 46.031 83.0532 45.5469 84.0296C44.6914 85.7871 43.2956 86.9587 41.2131 87.7054C40.335 88.0155 40.2562 88.0155 37.6672 88.027C34.6729 88.027 34.2338 87.9581 32.6579 87.1655C31.127 86.4074 29.8212 84.9715 29.3371 83.5356C29.0332 82.6282 29.0445 82.3065 29.4497 81.847C29.9 81.3186 31.9487 79.8713 34.1213 78.5388C35.0781 77.9415 36.215 77.2408 36.6315 76.9766C37.048 76.7124 37.442 76.4941 37.5096 76.4941C37.5659 76.4826 38.6803 77.1374 39.9861 77.93Z" fill="#C09E6A"/>
<path d="M129.701 20.4102C129.664 20.5351 129.683 20.7136 129.775 20.785C129.867 20.8742 131.141 21.017 132.58 21.1241C134.906 21.2847 135.367 21.3739 136.272 21.8201C136.881 22.1057 137.49 22.5697 137.73 22.9088C138.228 23.6406 138.228 23.6049 135.644 29.8872C134.574 32.493 133.466 35.188 133.226 35.8841C132.968 36.5623 131.897 39.1323 130.864 41.5953C127.025 50.6441 125.401 54.5705 123.407 59.5322C121.506 64.3153 121.008 65.5111 118.59 71.1331C116.191 76.7373 114.714 78.29 111.245 78.8255C109.491 79.0932 109.602 79.3966 111.503 79.5394C113.146 79.6465 125.936 79.5572 126.305 79.4323C126.416 79.3966 126.527 79.236 126.527 79.111C126.527 78.9147 126.028 78.8433 124.275 78.7719C121.617 78.6648 120.824 78.3793 120.03 77.2906C119.624 76.7194 119.532 76.3803 119.513 75.5594C119.513 74.4706 120.159 72.2575 120.934 70.6513L121.396 69.7053L137.674 69.741L153.934 69.7946L154.248 70.4192C154.414 70.7583 154.783 71.7578 155.042 72.6502C155.319 73.5247 155.651 74.5777 155.78 74.9704C155.909 75.363 156.241 76.3982 156.518 77.2906C156.795 78.1651 157.09 79.1289 157.201 79.4323C158.087 82.038 158.659 84.3761 158.659 85.3577C158.678 86.8569 158.069 88.0884 156.906 88.9808C156.647 89.1771 155.891 89.2663 154.156 89.3377C152.476 89.3913 151.72 89.4984 151.664 89.6411C151.498 90.1766 152.661 90.248 160.486 90.1944C164.805 90.1587 168.441 90.0695 168.589 89.9802C169.069 89.6768 168.256 89.3377 167.057 89.3377C164.731 89.3199 163.605 88.1062 162.258 84.0727C161.797 82.6984 160.966 80.1997 160.413 78.5399C159.859 76.8622 159.01 74.3457 158.548 72.9357C158.087 71.5436 157.718 70.2586 157.755 70.0801C157.81 69.8124 161.428 69.7946 205.76 69.7053C252.971 69.6161 253.728 69.6161 253.986 69.277C254.282 68.8843 254.319 68.3132 254.079 67.9384C253.931 67.7064 247.361 67.6707 205.483 67.5993C168.847 67.5458 157.017 67.4922 156.85 67.3316C156.647 67.1174 155.595 64.0298 155.06 62.0308C154.913 61.4954 154.673 60.6387 154.506 60.1568C154.34 59.6571 154.137 59.0146 154.045 58.729C153.178 55.8913 151.572 51.001 149.246 44.094C147.142 37.7938 146.644 36.2589 145.814 33.5639C145.537 32.6715 145.241 31.7077 145.149 31.4221C145.057 31.1187 144.817 30.2799 144.595 29.5481C144.374 28.8164 143.968 27.4778 143.691 26.6033C142.621 23.1587 142.621 22.9088 143.599 22.2485C144.891 21.4096 147.124 20.9991 150.631 20.9813C151.738 20.9813 152.199 20.9099 152.366 20.7136C152.55 20.4994 152.55 20.428 152.347 20.3566C152.199 20.3209 147.069 20.2495 140.941 20.2317C131.86 20.1781 129.793 20.2138 129.701 20.4102ZM140.683 27.7812C141.255 29.4232 142.362 32.8678 143.119 35.3486C144.097 38.5434 145.094 41.7559 146.072 44.8079C146.275 45.3968 146.644 46.5926 146.921 47.485C147.198 48.3596 147.696 49.8945 148.028 50.8761C148.582 52.4824 149.505 55.3023 151.627 61.7631C153.122 66.3678 153.362 67.3137 153.104 67.4744C152.864 67.6172 123.481 67.7421 122.891 67.6172C122.651 67.5636 122.466 67.4387 122.466 67.3137C122.466 66.9032 127.302 54.9453 129.553 49.8052C130.033 48.7165 131.011 46.432 131.713 44.7186C132.433 43.0053 133.208 41.1491 133.448 40.6137C133.688 40.0783 134.518 38.0615 135.293 36.1518C136.087 34.2421 136.862 32.3502 137.047 31.9576C137.231 31.5649 137.896 30.0479 138.523 28.6022C139.188 27.0852 139.76 25.9965 139.889 26.0322C140 26.0679 140.35 26.8531 140.683 27.7812Z" fill="#C09E6A"/>
<path d="M256.903 21.5523C256.736 21.82 256.903 21.8914 258.268 22.1413C259.893 22.4447 260.668 22.7659 261.314 23.4084C262.55 24.6042 262.458 22.7124 262.513 47.128C262.55 67.6349 262.569 69.2769 262.864 69.4732C263.252 69.7588 358.763 69.8123 359.52 69.5267C359.945 69.384 360 69.259 360 68.5808V67.7955L359.133 67.6706C358.653 67.617 337.575 67.5813 312.29 67.5992C287.023 67.6349 266.223 67.5813 266.112 67.5099C265.928 67.4029 265.872 62.9945 265.872 46.4497C265.872 34.938 265.928 25.2111 266.002 24.8363C266.26 23.3014 268.032 22.3554 271.04 22.1413C272.351 22.052 272.923 21.8557 272.627 21.5701C272.424 21.3738 257.032 21.356 256.903 21.5523Z" fill="#C09E6A"/>
<path d="M234.958 31.7969C228.701 32.4751 224.512 35.3308 221.965 40.6494C220.876 42.8982 220.58 44.4688 220.58 47.842C220.599 51.4472 220.986 53.2855 222.315 55.8734C223.736 58.6933 225.231 60.2639 227.834 61.7274C231.746 63.9405 237.173 64.6723 241.75 63.5836C248.966 61.8702 253.1 57.2834 254.06 49.9301C254.448 46.9139 253.728 42.8446 252.307 40.0069C250.369 36.2053 246.585 33.2961 242.156 32.2253C240.679 31.8683 236.582 31.6363 234.958 31.7969ZM241.547 33.8851C246.124 35.2951 249.206 38.5612 250.572 43.4693C250.941 44.7543 250.996 45.4147 250.996 47.842C250.996 50.9653 250.812 52.0362 249.815 54.517C249.206 56.034 247.914 57.9616 246.751 59.0503C245.681 60.0676 243.78 61.1028 241.842 61.7274C240.236 62.245 239.941 62.2807 237.357 62.2807C234.035 62.2985 232.909 62.0308 229.938 60.4959C228.332 59.6571 227.871 59.318 226.966 58.2828C224.844 55.8555 223.829 52.9642 223.663 48.9485C223.367 41.7559 226.062 36.7407 231.451 34.4562C232.263 34.1171 233.943 33.6709 235.419 33.4032C235.678 33.3497 236.84 33.3497 238.003 33.3854C239.627 33.4211 240.458 33.546 241.547 33.8851Z" fill="#C09E6A"/>
<path d="M304.077 31.8682C302.435 32.1003 299.998 32.8499 298.522 33.5995C296.713 34.5097 294.424 36.348 293.354 37.7223C292.117 39.3286 290.696 42.1842 290.327 43.8262C289.441 47.7705 289.976 52.625 291.674 55.8733C293.723 59.7998 296.935 62.1378 302.139 63.4764C304.52 64.0832 308.617 64.0832 310.906 63.4943C314.265 62.6019 316.092 61.6381 317.938 59.8176C318.971 58.7646 319.359 58.1935 319.156 57.9793C319.082 57.9258 318.676 58.1221 318.233 58.4434C316.037 60.0497 313.951 60.9956 311.183 61.6024C309.503 61.9594 304.926 62.0129 303.523 61.6916C302.047 61.3347 299.131 60.1032 298.134 59.4071C294.757 57.0513 292.856 52.5537 293.04 47.4492C293.096 46.2891 293.225 45.129 293.336 44.8435L293.557 44.3616H306.273C313.268 44.3616 319.119 44.308 319.285 44.2545C319.839 44.0582 319.581 41.1312 318.805 38.8288C318.178 36.9013 317.403 35.7055 316 34.4026C314.653 33.1711 313.693 32.6892 311.478 32.1181C310.242 31.7968 305.72 31.6541 304.077 31.8682ZM310.611 33.8136C312.955 34.6168 314.431 35.884 315.483 38.0078C316.221 39.4535 316.794 41.738 316.572 42.2913C316.461 42.5411 315.336 42.5768 305.166 42.5768H293.889L294 42.0057C294.148 41.2739 295.2 39.4713 296.141 38.3112C298.134 35.884 301.549 34.0278 305.185 33.4031C306.329 33.2068 309.54 33.4567 310.611 33.8136Z" fill="#C09E6A"/>
<path d="M179.773 32.225C177.005 32.8319 174.292 34.2597 173.147 35.7053C172.465 36.562 172.114 36.8833 171.929 36.7762C171.855 36.7227 171.763 35.7589 171.763 34.6345C171.745 33.5101 171.689 32.4571 171.634 32.3143C171.542 32.0823 170.84 32.0466 166.909 32.0466C163.31 32.0466 162.314 32.1001 162.369 32.2607C162.424 32.3857 162.812 32.5642 163.273 32.6355C165.839 33.0817 166.725 33.3316 167.352 33.8313C168.718 34.92 168.644 34.2597 168.626 47.7168C168.607 55.891 168.533 59.8889 168.386 60.1388C167.703 61.4595 166.448 62.0663 163.993 62.2983C162.314 62.4589 162.074 62.5303 162.35 62.8516C162.517 63.0658 163.864 63.1015 170.379 63.1015C175.104 63.1015 178.223 63.0301 178.297 62.9408C178.463 62.6553 177.835 62.4411 176.543 62.3162C174.458 62.102 173.535 61.7629 172.686 60.8705C172.28 60.4422 171.929 59.8889 171.929 59.6747C171.763 51.4826 171.745 42.184 171.892 41.0953C172.132 39.3284 172.797 38.0255 174.163 36.687C176.396 34.4917 179.589 33.3851 183.28 33.5101C184.941 33.5636 185.476 33.6529 186.215 34.0098C187.857 34.7773 188.835 36.0623 189.592 38.3825C189.906 39.3641 189.924 40.2565 189.924 49.5373C189.924 60.7991 189.998 60.1923 188.614 61.281C187.857 61.8878 186.971 62.1555 185.07 62.3162C183.668 62.4411 183.262 62.6017 183.446 62.9051C183.612 63.155 199.005 63.1729 199.411 62.9408C199.817 62.691 199.152 62.4589 197.584 62.2983C195.923 62.1555 195.092 61.8878 194.206 61.2453C192.951 60.3172 192.951 60.4065 193.007 49.7157L193.062 40.1672L193.689 38.9179C194.465 37.4009 196.329 35.5447 197.768 34.8665C198.322 34.6166 199.522 34.1883 200.444 33.9384C202.401 33.3851 205.04 33.3138 206.59 33.7421C208.473 34.2954 209.949 35.8303 210.725 38.0791C211.131 39.257 211.131 39.382 211.075 49.448C211.038 60.9776 211.112 60.4065 209.525 61.4416C208.897 61.8343 208.344 62.0306 207.587 62.1198C205.169 62.3697 204.689 62.4768 204.689 62.7445C204.689 62.9765 205.741 63.0122 212.681 63.0658C219.584 63.1015 220.654 63.0658 220.654 62.8516C220.654 62.566 220.543 62.5482 218.089 62.2091C217.332 62.102 216.446 61.8878 216.095 61.745C215.265 61.3524 214.416 60.3708 214.305 59.6747C214.25 59.3535 214.176 54.4989 214.139 48.9126C214.065 38.9893 214.065 38.7037 213.659 37.4009C212.681 34.2597 211.075 32.7069 208.085 32.0466C206.535 31.7075 202.142 31.9038 200.26 32.3857C197.215 33.171 195 34.5988 193.486 36.7227C193.08 37.3116 192.693 37.7221 192.6 37.6329C192.527 37.5615 192.324 37.0439 192.139 36.5085C191.401 34.2061 189.5 32.5998 186.916 32.0644C185.402 31.761 181.508 31.8502 179.773 32.225Z" fill="#C09E6A"/>
<path d="M322.349 32.3144C322.349 32.6356 322.755 32.7249 324.564 32.8141C325.486 32.8676 326.206 33.0104 326.686 33.2424C327.572 33.6886 329.085 35.17 330.599 37.044C331.189 37.7757 332.5 39.3999 333.515 40.6314C336.044 43.7369 338.258 46.4675 338.554 46.878C338.794 47.1814 338.258 47.8061 332.352 54.2134C328.679 58.1934 325.56 61.4417 325.117 61.7094C324.545 62.0485 323.991 62.2092 323.013 62.2984C321.555 62.4412 321.112 62.584 321.315 62.9052C321.5 63.1908 337.04 63.1908 337.225 62.9052C337.446 62.5483 336.929 62.4412 334.641 62.2984C331.614 62.1378 330.322 61.8344 329.695 61.1383C328.919 60.3173 328.938 60.2816 332.795 56.0517C333.423 55.3557 334.622 54.0349 335.453 53.1069C336.302 52.1788 337.594 50.7867 338.351 50.0192C339.698 48.6271 339.716 48.6093 340.104 48.9484C341.119 49.8229 347.486 57.8008 348.465 59.4249C349.074 60.4244 349.037 61.2275 348.354 61.7094C348.022 61.9593 347.302 62.1199 345.862 62.2805C344.312 62.4412 343.851 62.5483 343.851 62.7446C343.851 62.9766 344.939 63.0123 351.787 63.0123C358.69 63.0123 359.723 62.9766 359.723 62.7446C359.723 62.5483 359.28 62.4412 357.693 62.2805C356.585 62.1735 355.46 61.995 355.201 61.8879C354.223 61.4952 351.898 58.836 344.903 50.1085C341.525 45.9143 341.765 46.3069 342.319 45.6822C348.188 39.1857 352.913 34.0813 353.448 33.6886C354.075 33.2067 355.22 32.8319 356.585 32.6356C357.195 32.5642 357.693 32.4036 357.693 32.3144C357.693 32.2073 355.091 32.118 350.366 32.0823C344.183 32.0466 343.02 32.0823 343.02 32.2965C343.02 32.6178 343.592 32.7606 344.958 32.7606C346.158 32.7784 348.059 33.1175 348.649 33.4209C349.757 33.992 349.886 34.7238 349.074 35.866C348.317 36.9191 342.485 43.2728 341.285 44.3437C340.695 44.8791 340.713 44.9148 338.406 42.1306C334.032 36.8655 332.814 34.9915 333.164 34.0456C333.404 33.3852 334.346 32.9212 335.693 32.8141C336.893 32.707 337.483 32.5107 337.483 32.2251C337.483 32.118 334.659 32.0466 329.916 32.0466C323.364 32.0466 322.349 32.0823 322.349 32.3144Z" fill="#C09E6A"/>
</svg>
