<svg width="75" height="91" viewBox="0 0 75 91" fill="none" xmlns="http://www.w3.org/2000/svg">
<path d="M37.2394 0.978851C36.9918 1.77145 36.0124 5.61958 35.247 8.7785C34.549 11.7077 33.4346 16.8768 32.7142 20.5986C32.3427 22.5514 31.9037 24.7798 31.7461 25.538C31.3634 27.4218 31.217 28.1455 30.688 30.8794C30.429 32.1774 30.0238 34.1647 29.7874 35.3019C29.3259 37.4614 28.9206 39.4372 27.7049 45.4104C26.6017 50.9012 26.3316 52.1188 25.4423 55.921C25.2847 56.5872 25.0933 57.4373 25.0033 57.8163C24.0915 61.8368 24.0464 61.9976 23.8438 61.9172C23.5399 61.7908 20.3655 59.6198 19.2623 58.7812C18.7107 58.3677 16.3468 56.6791 14.0279 55.0365C11.709 53.3938 9.17621 51.5904 8.39949 51.0275C7.62277 50.4647 6.31698 49.5342 5.49524 48.9714C4.67349 48.397 3.10879 47.3058 2.02814 46.5246C0.936232 45.7435 0.0244314 45.1232 0.00191778 45.1577C-0.0318526 45.1807 0.384649 46.1686 0.913718 47.3517C1.44279 48.5349 1.87055 49.5113 1.87055 49.5342C1.87055 49.6032 2.59098 51.1769 4.68475 55.6912C5.24759 56.9203 6.41829 59.5509 7.28507 61.5266C10.527 68.9702 12.8684 73.2548 14.6358 75.0353C16.1442 76.5401 18.3167 77.1833 19.9827 76.5975C20.827 76.3103 21.7501 75.713 22.2341 75.1501C23.4273 73.7717 25.0821 70.475 25.386 68.9242L25.4535 68.5337L27.1421 69.6709C28.0764 70.2912 29.3484 71.1297 29.99 71.5432C32.9393 73.4501 33.8511 74.0819 33.7948 74.1738C33.7611 74.2312 33.232 74.5873 32.6354 74.9664C29.3596 77.011 26.5004 78.8834 25.87 79.3773C24.4967 80.4916 23.8663 81.8241 24.1478 82.9728C24.4292 84.11 25.7012 86.1202 26.7256 87.0736C28.0539 88.2797 30.6654 89.371 33.2207 89.7845C35.9786 90.2325 37.397 90.3014 39.5245 90.1062C42.7215 89.8075 44.1398 89.4399 46.5038 88.3257C48.1247 87.5561 49.6557 85.9019 50.6012 83.9032C51.4005 82.2376 50.9502 80.7788 49.2054 79.3659C48.7551 78.9983 48.0685 78.5043 47.6745 78.2631C47.2805 78.0219 45.9184 77.1489 44.6464 76.3333C43.3744 75.5177 42.0911 74.6907 41.7984 74.4954L41.2468 74.1508L41.5733 73.8866C41.7421 73.7373 42.1474 73.4501 42.4513 73.2663C42.7665 73.071 43.3068 72.7149 43.6558 72.4852C44.0047 72.2554 44.6914 71.8074 45.1755 71.4973C45.6595 71.1871 46.6839 70.5094 47.4606 69.9925C48.2373 69.4756 49.0478 68.9472 49.2729 68.8093L49.6894 68.5566L49.757 68.9587C49.802 69.1769 49.9821 69.7398 50.1622 70.1993C50.3536 70.6473 50.4999 71.0723 50.4999 71.1182C50.4999 71.3709 51.6031 73.4271 52.1659 74.2312C52.9426 75.3225 53.5843 75.9198 54.4848 76.3678C56.3985 77.3327 58.9313 76.6779 60.6986 74.7711C61.2614 74.1738 62.2295 72.7953 62.9049 71.6351C63.9631 69.8087 66.4283 64.7774 67.7116 61.7793C68.3532 60.2975 69.6252 57.4487 70.537 55.4615C71.4601 53.4743 72.5745 51.016 73.0135 50.0052C73.4525 48.9943 74.1054 47.5355 74.4431 46.7544C74.7921 45.9848 75.0397 45.3185 74.9947 45.2726C74.9609 45.2381 74.7358 45.3415 74.5107 45.5138C74.2743 45.6861 73.4075 46.2949 72.5858 46.8807C71.7528 47.4666 70.1656 48.5808 69.0399 49.3734C67.9142 50.166 66.282 51.3262 65.4152 51.958C64.5484 52.5783 62.3083 54.1635 60.4284 55.4845C58.5598 56.8055 56.5561 58.2299 55.982 58.6664C54.6537 59.6657 51.513 61.8368 51.2654 61.9287C51.1303 61.9746 51.0515 61.9172 51.0065 61.7449C50.7025 60.5962 50.3761 59.2177 50.2748 58.6204C50.2185 58.3677 50.1059 57.8278 49.9934 57.4143C49.8921 57.0008 49.7119 56.2311 49.5881 55.6912C49.4643 55.1514 49.2729 54.3013 49.1491 53.7959C49.0365 53.2905 48.8001 52.2566 48.6425 51.4985C48.4737 50.7404 48.2711 49.8099 48.1923 49.4308C48.1022 49.0518 47.7758 47.4436 47.4718 45.8699C46.9203 43.1015 46.4362 40.7237 46.0535 38.9203C45.9522 38.4493 45.7045 37.2087 45.4906 36.1749C45.2768 35.1411 45.0516 34.1072 44.9841 33.8775C44.9278 33.6478 44.8265 33.1538 44.7702 32.7748C44.7027 32.3957 44.5226 31.4423 44.3537 30.6497C44.1961 29.8571 44.016 28.9266 43.9597 28.582C43.9034 28.2374 43.8134 27.7205 43.7458 27.4333C43.6896 27.1461 43.577 26.6292 43.5094 26.2846C43.4419 25.94 43.3406 25.4231 43.2843 25.1359C43.2168 24.8488 43.1267 24.3548 43.0704 24.0447C43.0029 23.723 42.9128 23.2406 42.8453 22.9534C42.789 22.6662 42.6764 22.0689 42.5864 21.6324C42.1811 19.5992 41.5733 16.5896 41.3707 15.6018C40.8866 13.3158 39.502 7.23924 39.1868 6.06757C38.7816 4.53981 38.5452 3.57491 38.5002 3.31071C38.4664 3.14989 38.3763 2.75933 38.2863 2.44918C38.1962 2.12755 38.0161 1.49577 37.881 1.03629C37.746 0.588295 37.6109 0.209229 37.5659 0.209229C37.5208 0.209229 37.3745 0.553833 37.2394 0.978851ZM38.4326 35.3593C38.6915 36.083 39.1756 37.5304 39.5245 38.5757C39.8735 39.621 40.3688 41.0339 40.6165 41.7231C41.4269 43.9745 43.1717 49.1092 44.6914 53.7959C45.5244 56.323 46.6388 59.6313 47.1792 61.1475C47.7082 62.6638 48.1585 63.9733 48.1698 64.0652C48.181 64.1571 47.5394 64.6855 46.7289 65.2599C45.2768 66.2822 44.5676 66.7876 41.7759 68.7289C40.9767 69.2918 39.7384 70.1878 39.0292 70.7047C38.3313 71.2331 37.6784 71.6581 37.5884 71.6581C37.4983 71.6581 36.6541 71.1067 35.7197 70.429C34.7742 69.7513 33.3783 68.7634 32.6016 68.2235C31.8249 67.6836 30.2377 66.5694 29.067 65.7423C26.6468 64.0308 26.8156 64.3409 27.4235 62.6409C28.3128 60.1252 29.1795 57.5751 30.8005 52.6472C32.489 47.5355 33.3671 44.928 34.5715 41.5048C35.1682 39.8163 36.2376 36.7033 36.8342 34.8998C37.0593 34.2336 37.3182 33.6018 37.4195 33.4869C37.5884 33.2917 37.6109 33.3032 37.791 33.6593C37.8923 33.866 38.185 34.6356 38.4326 35.3593ZM64.6835 58.7238C64.6835 58.7468 64.4809 59.3556 64.222 60.0793C63.9631 60.7915 63.4678 62.2503 63.1075 63.3301C61.2614 68.8438 60.935 69.6249 59.8205 71.325C58.571 73.2318 57.1527 74.5299 56.3084 74.5299C55.4191 74.5299 54.3385 73.542 53.877 72.2784C53.5955 71.4858 52.4136 67.1782 52.4136 66.914C52.4136 66.7876 52.74 66.5005 53.2353 66.1788C53.6743 65.8917 55.1602 64.8923 56.5223 63.9733C57.8844 63.0544 59.2802 62.1239 59.6179 61.9057C59.9556 61.6874 60.7211 61.1935 61.3064 60.8029C61.8918 60.4124 62.7023 59.8955 63.1075 59.6542C63.5128 59.413 63.9856 59.0914 64.1544 58.942C64.4471 58.7008 64.6835 58.6089 64.6835 58.7238ZM12.0467 59.6772C14.8609 61.4807 15.9528 62.2043 18.6432 64.0193C20.1628 65.0416 21.6938 66.0525 22.0427 66.2707C22.5268 66.5579 22.6956 66.7302 22.6956 66.9255C22.6956 67.2241 21.6713 71.0263 21.3336 72.0027C21.0409 72.8068 20.6581 73.4731 20.2529 73.8636C19.8927 74.2197 19.2285 74.5299 18.8345 74.5299C18.4743 74.5299 17.5513 74.0244 17.0785 73.5764C16.0429 72.5656 14.2981 69.9121 13.7915 68.5566C13.465 67.7181 12.1142 63.7321 12.0354 63.4449C12.0129 63.3186 11.9341 63.1118 11.8891 62.9855C11.7315 62.6409 10.6396 59.3441 10.5721 59.0454C10.5383 58.9076 10.5495 58.7927 10.5946 58.7927C10.6396 58.7927 11.2925 59.1833 12.0467 59.6772ZM39.9861 77.93C41.2806 78.7341 42.6202 79.5611 42.9579 79.7909C44.0047 80.4916 45.6482 81.7666 45.8283 82.0308C46.1098 82.4444 46.031 83.0532 45.5469 84.0296C44.6914 85.7871 43.2956 86.9587 41.2131 87.7054C40.335 88.0155 40.2562 88.0155 37.6672 88.027C34.6729 88.027 34.2338 87.9581 32.6579 87.1655C31.127 86.4074 29.8212 84.9715 29.3371 83.5356C29.0332 82.6282 29.0445 82.3065 29.4497 81.847C29.9 81.3186 31.9487 79.8713 34.1213 78.5388C35.0781 77.9415 36.215 77.2408 36.6315 76.9766C37.048 76.7124 37.442 76.4941 37.5096 76.4941C37.5659 76.4826 38.6803 77.1374 39.9861 77.93Z" fill="#C09E6A"/>
</svg>
