<svg width="51" height="51" viewBox="0 0 51 51" fill="none" xmlns="http://www.w3.org/2000/svg">
<path d="M15.1154 40.3437C12.3651 40.3437 10.1154 42.6286 10.1154 45.4219C10.1154 48.2151 12.3651 50.5 15.1154 50.5C17.8656 50.5 20.1155 48.2151 20.1155 45.4219C20.1154 42.6284 17.8655 40.3437 15.1154 40.3437ZM3.03906 0.5C1.63677 0.5 0.5 1.63678 0.5 3.03906C0.5 4.44134 1.63677 5.57811 3.03906 5.57811H3.57542C4.75271 5.57811 5.8267 6.2502 6.34138 7.30903L13.3111 21.6474C14.0526 23.1728 13.9702 24.9702 13.0923 26.4214L10.7374 30.3139C10.3626 30.9487 10.1124 31.8376 10.1124 32.7266C10.1124 36.1263 12.399 37.8047 15.5 37.8047H42.2894C43.6377 37.8047 44.7308 36.7117 44.7308 35.3633C44.7308 34.015 43.6377 32.9219 42.2894 32.9219H16.1121C15.7374 32.9219 15.4871 32.6678 15.4871 32.2872C15.4871 32.1607 15.7524 31.6524 15.7524 31.6524L16.782 30.002C17.6953 28.5381 19.2988 27.6485 21.0242 27.6485H36.8745C38.7496 27.6485 40.3755 26.6332 41.2495 24.983L50.2498 9.26035C50.3984 8.95994 50.5 8.49791 50.5 7.99095C50.5 6.59374 49.3745 5.57824 48 5.57824H13.8037C12.0933 5.57824 10.5374 4.58838 9.81274 3.03912C9.08803 1.48986 7.5322 0.5 5.82182 0.5H3.03906ZM39.7306 40.3437C36.9804 40.3437 34.7306 42.6286 34.7306 45.4219C34.7306 48.2151 36.9804 50.5 39.7306 50.5C42.4809 50.5 44.7308 48.215 44.7308 45.4218C44.7308 42.6284 42.4809 40.3437 39.7306 40.3437Z" fill="#48371E"/>
</svg>
