<svg width="28" height="24" viewBox="0 0 28 24" fill="none" xmlns="http://www.w3.org/2000/svg">
<path d="M19.2371 1.9635C21.0756 1.71068 22.9036 2.19469 24.0886 3.53381L24.3171 3.81311C25.9095 5.92447 25.9592 8.90609 24.4666 11.0719L24.3171 11.2789L17.5105 20.3033C15.7605 22.6236 12.5067 22.6965 10.6628 20.5211L10.489 20.3033L3.68237 11.2789C2.09018 9.16745 2.04101 6.18587 3.53394 4.02014L3.68237 3.81311C4.77876 2.35941 6.56093 1.76847 8.39526 1.92249L8.76245 1.9635C10.2042 2.16176 11.6358 2.81622 12.7009 3.84241L12.9089 4.05237C13.1923 4.35265 13.5869 4.52302 13.9998 4.52307C14.361 4.52307 14.7082 4.39248 14.9792 4.15881L15.0906 4.05237C16.1053 2.977 17.5102 2.26807 18.949 2.0094L19.2371 1.9635Z" stroke="#48371E" stroke-width="3" stroke-linecap="round" stroke-linejoin="round"/>
</svg>
