<svg width="26" height="26" viewBox="0 0 26 26" fill="none" xmlns="http://www.w3.org/2000/svg">
<path d="M12.9727 1.2998L13.0127 1.31543C13.0465 1.33288 13.0819 1.36249 13.1113 1.40527L13.1387 1.45215L15.9346 7.37305C16.3106 8.16921 17.0293 8.76102 17.8975 8.9502L18.0732 8.98242L24.3252 9.93164C24.4092 9.94439 24.5411 10.044 24.5508 10.2246L24.5469 10.3066C24.5382 10.369 24.515 10.4226 24.4854 10.4648L24.4541 10.5039L19.9297 15.1123C19.311 15.7425 19.0181 16.6182 19.1084 17.4834L19.1318 17.6562L20.2002 24.1641C20.2333 24.3663 20.119 24.4944 20.0244 24.5352L19.9854 24.5479C19.9646 24.5516 19.9429 24.5515 19.9209 24.5479L19.8555 24.5244L14.2627 21.4521C13.4775 21.0207 12.5431 20.9937 11.7393 21.3711L11.5801 21.4521L5.9873 24.5244C5.93284 24.5543 5.88121 24.5573 5.83105 24.541C5.7925 24.5285 5.74916 24.5021 5.71191 24.4541L5.67676 24.3984C5.65097 24.3471 5.63737 24.2873 5.6377 24.2256L5.64258 24.1641L6.71094 17.6562C6.85255 16.7934 6.6074 15.903 6.03223 15.2412L5.91309 15.1123L1.38867 10.5039C1.33139 10.4456 1.29324 10.359 1.29199 10.2568C1.29113 10.1802 1.31158 10.1117 1.3457 10.0566L1.38379 10.0068C1.40556 9.98349 1.42842 9.96618 1.45117 9.9541L1.5166 9.93164H1.51758L7.76953 8.98242C8.65691 8.84767 9.4074 8.29741 9.82812 7.5293L9.90723 7.37305L12.7041 1.45215C12.7451 1.36557 12.8047 1.32209 12.8564 1.30371C12.8943 1.29028 12.9329 1.28838 12.9727 1.2998Z" stroke="#C09E6A" stroke-width="2.58429"/>
</svg>
